# xmcd CD database file
#
# Track frame offsets:
#	150
#	17652
#	37402
#	57387
#	72045
#	90302
#	118957
#	138342
#	156155
#	163150
#
# Disc length: 2430 seconds
#
# Revision: 1
# Processed by: cddbd v1.5.2PL0 Copyright (c) Steve Scherf et al.
# Submitted via: CDex 1.70beta3
#
DISCID=89097c0a
DTITLE=山下達郎 - MELODIES
DYEAR=1900
DGENRE=New Age
TTITLE0=悲しみのJODY(She Was Crying)
TTITLE1=高気圧ガール
TTITLE2=夜翔(Night-Fly)
TTITLE3=GUESS I’M DUMB
TTITLE4=ひととき
TTITLE5=メリー・ゴー・ラウンド
TTITLE6=BLUE MiDNiGHT
TTITLE7=あしおと
TTITLE8=黙想
TTITLE9=クリスマス・イブ
EXTD=
EXTT0=
EXTT1=
EXTT2=
EXTT3=
EXTT4=
EXTT5=
EXTT6=
EXTT7=
EXTT8=
EXTT9=
PLAYORDER=
